<?xml version="1.0" standalone="no"?>
<!DOCTYPE svg PUBLIC "-//W3C//DTD SVG 20010904//EN"
 "http://www.w3.org/TR/2001/REC-SVG-20010904/DTD/svg10.dtd">
<svg version="1.0" xmlns="http://www.w3.org/2000/svg"
 width="1280.000000pt" height="1138.000000pt" viewBox="0 0 1280.000000 1138.000000"
 preserveAspectRatio="xMidYMid meet">
<metadata>
Created by potrace 1.15, written by Peter Selinger 2001-2017
</metadata>
<g transform="translate(0.000000,1138.000000) scale(0.100000,-0.100000)"
fill="#FFFFFF" stroke="none">
<path d="M2780 11367 c-33 -17 -70 -74 -70 -109 0 -72 58 -128 131 -128 124 0
173 165 67 230 -37 23 -91 26 -128 7z"/>
<path d="M3095 11119 c-32 -19 -45 -41 -45 -79 0 -63 64 -104 119 -75 55 28
67 85 29 129 -26 30 -74 41 -103 25z"/>
<path d="M3366 11047 c-49 -28 -76 -77 -76 -140 0 -81 43 -136 121 -157 113
-31 226 78 200 192 -25 110 -146 162 -245 105z"/>
<path d="M3859 10787 c-51 -34 -79 -82 -79 -134 0 -153 170 -225 276 -119 60
60 66 152 14 218 -46 59 -150 76 -211 35z"/>
<path d="M3476 10640 c-41 -13 -75 -48 -87 -92 -27 -103 86 -192 182 -143 92
48 89 183 -5 226 -46 21 -49 21 -90 9z"/>
<path d="M2314 10501 c-34 -15 -64 -60 -64 -98 0 -70 47 -118 116 -116 41 1
71 25 91 71 35 83 -60 178 -143 143z"/>
<path d="M4380 10481 c-112 -60 -157 -179 -110 -289 54 -125 189 -175 309
-116 141 71 169 257 54 366 -61 58 -181 77 -253 39z"/>
<path d="M3975 10400 c-62 -25 -93 -116 -61 -178 42 -81 179 -83 221 -2 56
108 -49 227 -160 180z"/>
<path d="M4962 10205 c-213 -66 -271 -333 -106 -484 145 -133 360 -93 452 84
35 68 37 177 3 248 -63 128 -214 194 -349 152z"/>
<path d="M4490 9959 c-111 -44 -127 -198 -27 -259 64 -39 162 -18 202 43 74
113 -50 266 -175 216z"/>
<path d="M4079 9911 c-56 -57 -23 -141 56 -141 87 0 120 116 44 155 -42 22
-67 18 -100 -14z"/>
<path d="M5633 9859 c-274 -54 -410 -367 -261 -601 60 -95 155 -158 270 -179
170 -31 350 65 426 228 24 52 27 70 27 163 0 93 -3 112 -27 162 -54 115 -169
204 -292 227 -67 12 -83 12 -143 0z"/>
<path d="M3390 9817 c-68 -53 -63 -154 10 -192 39 -20 68 -19 106 4 63 38 66
134 7 181 -29 23 -99 27 -123 7z"/>
<path d="M4685 9589 c-51 -29 -62 -99 -22 -136 57 -53 147 -13 147 66 0 50
-80 95 -125 70z"/>
<path d="M5011 9535 c-51 -16 -95 -55 -123 -109 -29 -57 -22 -149 16 -206 32
-49 110 -90 172 -90 58 0 139 44 172 92 37 56 43 148 13 205 -27 53 -82 98
-137 112 -52 13 -58 13 -113 -4z"/>
<path d="M6395 9340 c-96 -22 -150 -111 -131 -214 13 -68 98 -136 171 -136 46
0 109 34 140 75 56 72 40 192 -32 243 -43 30 -102 43 -148 32z"/>
<path d="M3597 9190 c-84 -66 -36 -200 72 -200 51 0 101 54 101 110 0 88 -106
143 -173 90z"/>
<path d="M4072 9027 c-46 -27 -66 -78 -51 -132 14 -48 52 -75 106 -75 133 0
140 201 8 216 -23 2 -50 -1 -63 -9z"/>
<path d="M5488 9013 c-48 -55 -13 -133 58 -133 25 0 64 47 64 78 0 58 -85 96
-122 55z"/>
<path d="M4600 9013 c-24 -9 -61 -46 -76 -75 -20 -38 -17 -84 7 -128 27 -48
66 -70 124 -70 41 0 52 5 85 38 48 49 58 96 31 156 -10 24 -31 52 -45 61 -28
18 -100 29 -126 18z"/>
<path d="M5056 8996 c-54 -20 -106 -65 -141 -121 -26 -41 -30 -60 -33 -129 -3
-73 -1 -86 25 -136 109 -207 402 -197 501 18 45 98 21 223 -58 302 -20 20 -54
44 -75 55 -51 25 -166 30 -219 11z"/>
<path d="M5928 9000 c-163 -28 -301 -167 -327 -328 -43 -265 195 -501 456
-453 135 25 237 103 296 229 29 61 32 76 32 162 0 83 -4 103 -28 154 -66 143
-177 222 -332 239 -27 3 -71 2 -97 -3z"/>
<path d="M4333 8888 c-25 -12 -45 -60 -36 -86 12 -34 36 -52 70 -52 68 0 98
76 48 125 -26 27 -47 30 -82 13z"/>
<path d="M6595 8872 c-48 -23 -69 -45 -90 -95 -48 -115 37 -240 164 -239 102
1 172 71 173 172 1 128 -133 216 -247 162z"/>
<path d="M3788 8744 c-64 -34 -76 -115 -25 -171 28 -30 40 -36 76 -36 80 0
131 82 97 155 -29 60 -92 83 -148 52z"/>
<path d="M4615 8627 c-54 -46 -24 -130 46 -130 86 0 92 128 8 148 -19 5 -34 0
-54 -18z"/>
<path d="M4324 8612 c-63 -51 -55 -150 16 -187 39 -20 68 -19 106 4 63 38 66
134 7 181 -32 25 -100 26 -129 2z"/>
<path d="M6621 8454 c-135 -36 -269 -144 -328 -264 -41 -83 -53 -136 -53 -235
0 -99 12 -152 53 -235 81 -165 270 -280 460 -280 146 0 270 54 371 161 199
211 196 511 -8 715 -107 106 -221 154 -366 153 -41 0 -99 -7 -129 -15z"/>
<path d="M4693 8435 c-57 -25 -88 -96 -71 -164 31 -121 196 -141 253 -31 34
65 8 150 -57 190 -38 23 -80 25 -125 5z"/>
<path d="M5003 8360 c-45 -18 -57 -81 -23 -118 32 -35 74 -33 108 4 30 34 28
60 -7 95 -31 31 -42 33 -78 19z"/>
<path d="M4381 8304 c-12 -15 -21 -38 -21 -51 0 -32 42 -73 75 -73 33 0 75 42
75 75 0 14 -11 37 -25 50 -33 34 -77 33 -104 -1z"/>
<path d="M5296 8315 c-82 -29 -145 -100 -172 -193 -39 -132 44 -283 178 -328
61 -20 157 -15 208 11 92 46 160 153 160 250 0 103 -72 210 -170 254 -53 24
-146 27 -204 6z"/>
<path d="M4856 8007 c-31 -31 -33 -65 -5 -101 41 -52 129 -19 129 49 0 32 -30
64 -67 71 -26 5 -37 1 -57 -19z"/>
<path d="M3514 7946 c-26 -26 -34 -42 -34 -69 0 -53 16 -85 52 -107 39 -24 78
-25 118 -5 42 21 60 53 60 103 0 37 -6 50 -34 78 -29 29 -41 34 -81 34 -40 0
-52 -5 -81 -34z"/>
<path d="M5977 7876 c-71 -26 -107 -76 -107 -149 0 -113 133 -188 230 -131 55
32 75 68 75 134 0 44 -5 66 -21 87 -43 57 -115 81 -177 59z"/>
<path d="M5621 7716 c-31 -17 -50 -53 -51 -94 0 -26 9 -43 34 -68 45 -45 92
-47 138 -5 28 25 33 36 33 76 0 40 -5 51 -33 76 -36 32 -80 38 -121 15z"/>
<path d="M5245 7695 c-66 -65 10 -164 93 -121 74 38 45 146 -40 146 -17 0 -39
-10 -53 -25z"/>
<path d="M4177 7592 c-15 -9 -37 -36 -49 -60 -73 -151 127 -278 231 -146 46
58 35 141 -25 194 -28 24 -43 30 -82 30 -27 0 -59 -8 -75 -18z"/>
<path d="M7220 7509 c-199 -33 -339 -208 -328 -414 5 -100 37 -174 107 -248
191 -202 520 -150 643 101 31 62 33 73 33 172 0 92 -3 112 -26 160 -78 165
-251 257 -429 229z"/>
<path d="M6040 7481 c-75 -24 -145 -87 -176 -158 -22 -50 -22 -166 0 -215 22
-51 70 -104 123 -135 66 -38 169 -44 241 -13 96 42 172 154 172 255 0 93 -69
203 -154 247 -44 23 -161 34 -206 19z"/>
<path d="M4789 7423 c-58 -36 -80 -111 -51 -177 24 -53 57 -77 115 -83 70 -7
131 44 144 120 7 46 -26 116 -66 140 -37 21 -108 22 -142 0z"/>
<path d="M5594 7374 c-62 -30 -77 -118 -28 -167 70 -71 174 -25 174 76 0 42
-24 75 -66 93 -41 17 -42 17 -80 -2z"/>
<path d="M5154 7350 c-28 -11 -54 -48 -54 -78 0 -33 43 -72 79 -72 43 0 84 39
84 79 0 54 -59 92 -109 71z"/>
<path d="M6585 7346 c-86 -38 -119 -139 -72 -220 57 -100 206 -102 268 -4 15
26 19 46 17 88 -5 67 -27 102 -84 130 -46 23 -86 25 -129 6z"/>
<path d="M4320 7201 c-24 -46 0 -91 49 -91 35 0 51 17 51 55 0 40 -16 55 -57
55 -22 0 -36 -6 -43 -19z"/>
<path d="M5352 7180 c-187 -45 -208 -310 -30 -385 133 -55 278 41 278 185 0
61 -17 105 -56 143 -52 52 -125 74 -192 57z"/>
<path d="M3642 7093 c-16 -6 -42 -56 -42 -82 0 -11 12 -33 26 -50 35 -42 84
-43 125 -2 16 16 29 39 29 51 0 29 -26 76 -45 84 -19 7 -74 7 -93 -1z"/>
<path d="M4675 7015 c-115 -41 -150 -175 -70 -264 103 -114 285 -44 285 109 0
114 -109 193 -215 155z"/>
<path d="M6505 6926 c-95 -43 -153 -125 -162 -225 -18 -203 174 -352 369 -285
62 21 121 74 152 136 55 109 26 254 -66 332 -79 68 -200 86 -293 42z"/>
<path d="M4981 6823 c-11 -10 -24 -32 -27 -50 -14 -71 87 -112 141 -58 30 30
32 64 4 99 -25 32 -85 36 -118 9z"/>
<path d="M3103 6814 c-66 -33 -93 -123 -56 -185 18 -29 84 -69 116 -69 36 0
87 30 107 62 43 70 16 164 -56 194 -43 18 -71 17 -111 -2z"/>
<path d="M7808 6805 c-58 -21 -102 -60 -134 -117 -25 -45 -29 -64 -29 -124 1
-62 5 -79 31 -120 92 -149 284 -174 401 -52 119 124 87 320 -66 400 -61 32
-139 37 -203 13z"/>
<path d="M5870 6787 c-128 -36 -211 -138 -218 -269 -5 -85 17 -152 69 -212
138 -157 390 -127 487 58 23 44 27 63 27 136 0 73 -4 92 -27 136 -64 122 -210
187 -338 151z"/>
<path d="M5242 6633 c-13 -3 -38 -20 -56 -38 -43 -43 -54 -95 -30 -153 40
-102 172 -119 236 -32 50 68 22 175 -54 210 -43 20 -53 21 -96 13z"/>
<path d="M7146 6579 c-62 -15 -153 -68 -197 -116 -180 -196 -125 -501 113
-625 60 -31 68 -33 173 -33 98 0 116 3 167 27 196 92 286 327 200 520 -76 170
-275 269 -456 227z"/>
<path d="M3674 6500 c-58 -23 -70 -95 -25 -141 35 -35 77 -38 114 -9 49 39 42
116 -14 145 -31 17 -44 18 -75 5z"/>
<path d="M4353 6351 c-41 -26 -63 -69 -63 -123 0 -59 30 -105 85 -129 57 -25
104 -18 151 23 66 58 68 152 4 213 -40 39 -128 47 -177 16z"/>
<path d="M5502 6244 c-43 -30 -20 -104 33 -104 32 0 55 25 55 59 0 46 -50 72
-88 45z"/>
<path d="M6515 6237 c-54 -30 -90 -100 -80 -157 13 -74 79 -130 155 -130 76 0
142 56 155 130 14 86 -67 180 -155 180 -19 0 -53 -10 -75 -23z"/>
<path d="M7966 6179 c-187 -64 -300 -251 -266 -441 23 -127 112 -241 230 -297
48 -22 68 -26 160 -26 93 0 111 3 163 27 162 76 261 259 230 425 -45 244 -289
390 -517 312z"/>
<path d="M11276 6139 c-48 -38 -23 -109 39 -109 37 0 65 28 65 66 0 23 -42 64
-65 64 -7 0 -24 -9 -39 -21z"/>
<path d="M11503 6125 c-45 -27 -83 -91 -83 -138 0 -33 24 -94 48 -120 44 -49
139 -65 200 -33 48 25 84 79 89 134 12 137 -135 228 -254 157z"/>
<path d="M4974 6115 c-34 -23 -49 -69 -34 -105 17 -41 46 -60 91 -60 29 0 43
7 63 31 15 17 26 43 26 59 0 16 -11 42 -26 59 -20 24 -34 31 -63 31 -20 0 -46
-7 -57 -15z"/>
<path d="M6062 6076 c-62 -20 -106 -59 -136 -118 -43 -87 -31 -180 32 -250
109 -121 301 -100 374 41 62 119 16 255 -108 319 -36 19 -116 23 -162 8z"/>
<path d="M10863 6072 c-27 -4 -73 -56 -73 -83 0 -48 49 -99 96 -99 32 0 73 31
83 63 23 70 -32 131 -106 119z"/>
<path d="M11965 6060 c-23 -25 -13 -67 20 -82 53 -24 100 46 57 85 -25 23 -55
21 -77 -3z"/>
<path d="M12207 6063 c-11 -11 -8 -48 5 -61 30 -30 75 0 64 43 -5 19 -13 25
-35 25 -15 0 -31 -3 -34 -7z"/>
<path d="M5716 6044 c-37 -37 -3 -98 50 -92 18 2 34 13 43 29 13 24 13 29 -2
53 -20 30 -66 35 -91 10z"/>
<path d="M5351 6014 c-12 -15 -21 -34 -21 -44 0 -10 9 -29 21 -44 16 -20 29
-26 59 -26 44 0 70 26 70 70 0 44 -26 70 -70 70 -30 0 -43 -6 -59 -26z"/>
<path d="M11818 6019 c-33 -19 -15 -69 24 -69 9 0 22 9 28 21 9 16 8 25 -6 40
-20 22 -22 22 -46 8z"/>
<path d="M11122 5983 c-112 -55 -123 -228 -19 -292 71 -44 145 -39 204 12 65
57 79 127 42 204 -39 81 -145 117 -227 76z"/>
<path d="M12343 5990 c-26 -11 -43 -40 -43 -74 0 -63 89 -90 129 -40 34 43 24
86 -26 112 -25 14 -30 14 -60 2z"/>
<path d="M12507 5982 c-23 -25 -21 -58 3 -82 50 -50 128 4 98 68 -17 35 -75
43 -101 14z"/>
<path d="M12085 5945 c-62 -61 7 -167 87 -134 16 6 36 25 44 40 41 81 -67 159
-131 94z"/>
<path d="M12685 5938 c-77 -42 -51 -148 36 -148 83 0 111 108 38 145 -33 18
-47 18 -74 3z"/>
<path d="M11922 5920 c-49 -20 -48 -103 3 -116 60 -15 96 20 81 79 -4 18 -46
50 -59 46 -1 0 -12 -4 -25 -9z"/>
<path d="M10542 5884 c-193 -96 -201 -365 -12 -468 111 -61 239 -39 323 54 49
54 69 110 68 187 -2 187 -210 312 -379 227z"/>
<path d="M5552 5839 c-125 -62 -160 -222 -70 -325 43 -49 97 -74 158 -74 126
0 213 87 213 212 0 151 -165 254 -301 187z"/>
<path d="M5166 5824 c-59 -59 -20 -154 64 -154 56 0 90 34 90 90 0 82 -95 122
-154 64z"/>
<path d="M6691 5840 c-69 -15 -127 -48 -175 -101 -146 -163 -100 -411 96 -508
53 -27 72 -31 143 -31 71 0 90 4 143 31 67 33 119 86 153 158 18 36 23 64 23
131 1 73 -3 93 -27 142 -63 129 -217 206 -356 178z"/>
<path d="M4874 5830 c-84 -34 -64 -162 27 -176 31 -5 42 -1 70 24 46 41 47 92
1 133 -33 29 -60 35 -98 19z"/>
<path d="M12474 5806 c-43 -43 -46 -90 -9 -134 60 -72 175 -33 175 61 0 49
-13 73 -50 92 -46 24 -78 19 -116 -19z"/>
<path d="M11780 5801 c-20 -38 13 -71 51 -51 21 12 25 40 7 58 -18 18 -46 14
-58 -7z"/>
<path d="M12262 5777 c-29 -31 -29 -77 1 -105 31 -30 72 -28 104 4 20 20 24
31 19 57 -12 64 -82 88 -124 44z"/>
<path d="M11622 5764 c-48 -33 -17 -114 44 -114 23 0 64 42 64 65 0 23 -41 65
-64 65 -12 0 -32 -7 -44 -16z"/>
<path d="M11422 5760 c-43 -18 -48 -86 -8 -112 20 -14 63 -8 79 10 47 51 -7
127 -71 102z"/>
<path d="M11940 5730 c-11 -11 -20 -31 -20 -45 0 -29 36 -65 65 -65 27 0 65
40 65 68 0 29 -34 62 -65 62 -14 0 -34 -9 -45 -20z"/>
<path d="M12110 5731 c-16 -31 4 -63 37 -59 34 4 52 32 37 56 -16 26 -60 28
-74 3z"/>
<path d="M10116 5711 c-43 -28 -66 -70 -66 -119 0 -78 50 -132 129 -139 110
-10 186 108 133 206 -35 66 -135 92 -196 52z"/>
<path d="M11786 5667 c-26 -19 -24 -67 4 -89 27 -22 39 -22 68 -2 42 29 18
104 -34 104 -11 0 -28 -6 -38 -13z"/>
<path d="M7450 5653 c-19 -10 -45 -34 -58 -53 -20 -29 -23 -44 -19 -89 3 -48
9 -59 45 -93 36 -33 47 -38 89 -38 82 0 139 50 150 128 15 109 -109 196 -207
145z"/>
<path d="M11282 5597 c-27 -29 -28 -61 -2 -87 39 -39 110 -11 110 44 0 27 -42
66 -70 66 -9 0 -26 -10 -38 -23z"/>
<path d="M11544 5606 c-47 -21 -74 -61 -74 -113 0 -86 48 -133 136 -133 39 0
51 5 79 33 64 64 54 152 -24 204 -38 26 -72 28 -117 9z"/>
<path d="M12097 5613 c-4 -3 -7 -17 -7 -30 0 -18 5 -23 25 -23 14 0 28 7 31
15 11 27 -30 58 -49 38z"/>
<path d="M11041 5596 c-77 -43 -60 -166 25 -182 64 -12 124 34 124 95 0 75
-83 124 -149 87z"/>
<path d="M12382 5594 c-40 -28 -16 -94 35 -94 25 0 53 30 53 58 0 20 -33 52
-55 52 -6 0 -21 -7 -33 -16z"/>
<path d="M12214 5575 c-15 -23 -15 -27 0 -50 11 -17 26 -25 44 -25 35 0 52 16
52 50 0 34 -17 50 -52 50 -18 0 -33 -8 -44 -25z"/>
<path d="M11954 5546 c-3 -8 -4 -25 -2 -38 2 -19 9 -23 38 -23 33 0 35 2 35
35 0 32 -3 35 -33 38 -21 2 -34 -2 -38 -12z"/>
<path d="M8654 5536 c-146 -66 -97 -296 64 -296 79 0 145 57 157 135 7 48 -24
117 -67 148 -34 25 -113 32 -154 13z"/>
<path d="M12103 5495 c-53 -23 -62 -92 -17 -132 33 -30 78 -30 109 2 66 65 -7
167 -92 130z"/>
<path d="M11817 5493 c-11 -11 -8 -48 5 -61 30 -30 75 0 64 43 -5 19 -13 25
-35 25 -15 0 -31 -3 -34 -7z"/>
<path d="M5965 5466 c-115 -53 -171 -183 -131 -302 61 -186 312 -236 434 -88
139 168 25 414 -193 414 -42 0 -75 -7 -110 -24z"/>
<path d="M9913 5476 c-38 -17 -63 -61 -63 -112 0 -28 8 -44 34 -70 29 -29 41
-34 80 -34 36 0 52 6 78 29 29 26 33 35 33 80 0 43 -5 55 -30 81 -37 36 -87
46 -132 26z"/>
<path d="M11234 5411 c-123 -75 -117 -244 10 -302 52 -23 90 -23 142 0 129 59
131 240 3 306 -40 21 -117 19 -155 -4z"/>
<path d="M10314 5396 c-70 -31 -87 -120 -35 -178 26 -29 35 -33 81 -33 46 0
55 4 81 33 52 58 33 149 -38 178 -40 17 -49 17 -89 0z"/>
<path d="M11911 5381 c-38 -38 -22 -95 32 -114 26 -10 64 12 78 45 10 25 9 33
-8 56 -26 35 -74 41 -102 13z"/>
<path d="M10843 5370 c-85 -51 -81 -179 6 -225 61 -31 136 -11 171 48 70 114
-63 247 -177 177z"/>
<path d="M11733 5344 c-15 -24 -15 -29 -2 -53 28 -50 109 -32 109 25 0 55 -76
75 -107 28z"/>
<path d="M9085 5330 c-111 -73 -70 -239 63 -257 105 -14 187 109 138 206 -35
67 -137 93 -201 51z"/>
<path d="M8202 5313 c-110 -54 -107 -220 6 -274 137 -67 275 82 199 215 -40
70 -131 96 -205 59z"/>
<path d="M9664 5307 c-20 -17 -27 -33 -27 -57 0 -24 7 -40 27 -57 34 -28 65
-29 100 -2 20 16 26 29 26 59 0 70 -72 103 -126 57z"/>
<path d="M4220 5283 c-33 -12 -50 -37 -50 -73 0 -72 80 -101 127 -46 12 15 23
33 23 41 0 27 -23 63 -47 74 -26 12 -30 12 -53 4z"/>
<path d="M7785 5265 c-54 -54 -16 -145 60 -145 20 0 44 4 54 10 25 13 45 64
37 95 -16 65 -104 88 -151 40z"/>
<path d="M11567 5272 c-18 -19 -22 -59 -9 -78 41 -63 139 -11 113 60 -16 39
-75 50 -104 18z"/>
<path d="M7255 5241 c-59 -16 -85 -31 -129 -71 -145 -134 -109 -368 70 -456
139 -68 317 -1 380 143 25 57 24 167 -2 224 -26 56 -85 116 -140 140 -48 22
-137 31 -179 20z"/>
<path d="M9404 5207 c-20 -17 -27 -33 -27 -57 0 -39 40 -80 79 -80 66 0 100
98 48 139 -35 27 -66 26 -100 -2z"/>
<path d="M9980 5198 c-114 -59 -147 -203 -67 -295 98 -112 267 -90 328 42 76
164 -100 335 -261 253z"/>
<path d="M10519 5184 c-59 -18 -131 -82 -160 -142 -33 -67 -32 -160 3 -227 51
-97 128 -145 238 -145 153 0 263 109 264 260 0 82 -28 144 -91 200 -73 64
-161 83 -254 54z"/>
<path d="M3604 5161 c-116 -71 -15 -255 108 -197 19 9 42 29 51 45 60 102 -57
214 -159 152z"/>
<path d="M8705 5126 c-83 -21 -122 -42 -181 -98 -240 -226 -119 -621 207 -678
172 -30 344 63 422 228 29 61 32 76 32 162 0 86 -3 101 -32 162 -57 120 -157
201 -281 227 -65 14 -103 13 -167 -3z"/>
<path d="M11004 5067 c-65 -59 -56 -162 19 -207 110 -67 241 56 182 170 -25
48 -62 70 -116 70 -42 0 -55 -5 -85 -33z"/>
<path d="M9635 5045 c-34 -33 -34 -93 -1 -124 56 -53 150 -12 150 65 0 74 -96
113 -149 59z"/>
<path d="M5166 5014 c-35 -34 -10 -96 39 -96 28 0 65 31 65 56 0 46 -71 74
-104 40z"/>
<path d="M4872 5008 c-20 -20 -15 -76 7 -88 46 -24 91 0 91 49 0 35 -17 51
-55 51 -17 0 -36 -5 -43 -12z"/>
<path d="M6669 4997 c-68 -45 -90 -143 -46 -207 37 -55 71 -74 132 -74 61 0
95 19 133 74 43 64 21 162 -47 207 -24 17 -49 23 -86 23 -37 0 -62 -6 -86 -23z"/>
<path d="M9330 4958 c-93 -64 -91 -191 4 -262 38 -29 124 -29 163 0 95 70 97
199 4 261 -47 32 -125 32 -171 1z"/>
<path d="M5487 4952 c-42 -46 4 -118 59 -93 59 26 42 110 -22 111 -11 0 -28
-8 -37 -18z"/>
<path d="M7894 4961 c-94 -24 -179 -93 -225 -183 -33 -64 -38 -185 -10 -259
85 -224 375 -286 545 -116 68 69 91 126 91 232 0 78 -4 97 -28 147 -51 104
-163 177 -281 184 -33 2 -75 0 -92 -5z"/>
<path d="M5866 4944 c-35 -34 -10 -96 39 -96 28 0 65 31 65 56 0 46 -71 74
-104 40z"/>
<path d="M6232 4928 c-68 -10 -123 -39 -173 -89 -126 -126 -126 -335 1 -457
69 -68 120 -87 230 -87 87 0 100 3 149 30 115 64 176 174 169 305 -8 126 -74
223 -188 273 -66 29 -116 36 -188 25z"/>
<path d="M5314 4840 c-29 -11 -54 -49 -54 -78 0 -32 52 -82 85 -82 34 0 85 50
85 84 0 52 -68 96 -116 76z"/>
<path d="M5072 4809 c-42 -16 -40 -94 3 -105 37 -9 59 -1 73 29 12 24 11 31
-2 51 -17 27 -43 36 -74 25z"/>
<path d="M5665 4788 c-76 -90 53 -202 136 -119 37 37 38 79 3 120 -21 26 -33
31 -69 31 -36 0 -48 -5 -70 -32z"/>
<path d="M4075 4799 c-40 -12 -58 -27 -84 -69 -38 -62 -23 -131 39 -184 63
-53 178 -27 214 48 54 115 -51 242 -169 205z"/>
<path d="M9693 4791 c-41 -26 -63 -69 -63 -123 0 -136 159 -195 249 -93 54 62
50 143 -9 200 -40 39 -128 46 -177 16z"/>
<path d="M2745 4765 c-56 -55 -16 -145 63 -145 51 0 86 35 86 87 0 73 -96 111
-149 58z"/>
<path d="M10925 4780 c-73 -30 -94 -124 -41 -179 94 -98 243 9 180 130 -23 46
-90 70 -139 49z"/>
<path d="M10120 4769 c-159 -47 -190 -262 -51 -351 41 -26 53 -29 112 -26 85
4 130 33 166 106 31 63 29 129 -6 186 -42 68 -145 107 -221 85z"/>
<path d="M3484 4676 c-60 -51 -21 -146 58 -146 80 0 118 88 62 144 -34 34 -83
35 -120 2z"/>
<path d="M7000 4624 c-58 -11 -159 -48 -210 -77 -76 -42 -208 -178 -247 -252
-56 -107 -76 -202 -71 -335 4 -90 11 -129 30 -182 71 -189 207 -325 396 -396
90 -34 266 -42 362 -18 242 62 435 259 480 493 18 90 8 262 -20 340 -65 185
-222 340 -410 404 -48 16 -93 23 -175 25 -60 1 -121 0 -135 -2z"/>
<path d="M9434 4594 c-40 -19 -64 -62 -64 -114 0 -34 6 -48 34 -76 28 -28 42
-34 75 -34 105 0 163 92 111 177 -35 58 -97 77 -156 47z"/>
<path d="M5186 4584 c-34 -33 -6 -104 40 -104 25 0 57 37 57 65 0 49 -63 74
-97 39z"/>
<path d="M10605 4591 c-85 -21 -151 -77 -188 -160 -23 -53 -20 -167 7 -218 79
-153 284 -193 412 -80 67 59 88 107 89 197 0 65 -4 82 -29 128 -58 104 -181
160 -291 133z"/>
<path d="M5420 4568 c-67 -34 -93 -79 -88 -154 6 -96 65 -153 161 -154 58 0
97 19 132 64 60 79 34 196 -55 243 -54 29 -94 29 -150 1z"/>
<path d="M5800 4523 c-40 -14 -53 -69 -22 -96 25 -23 58 -21 82 3 26 26 25 46
-5 75 -25 26 -29 27 -55 18z"/>
<path d="M9730 4407 c-129 -36 -208 -146 -198 -276 11 -141 121 -244 263 -244
175 0 303 167 256 336 -38 134 -189 221 -321 184z"/>
<path d="M9205 4398 c-32 -17 -45 -39 -45 -78 0 -95 130 -121 166 -33 33 78
-48 152 -121 111z"/>
<path d="M4633 4382 c-87 -68 -9 -200 94 -157 17 7 36 22 42 33 46 86 -61 183
-136 124z"/>
<path d="M10200 4313 c-39 -12 -63 -30 -76 -55 -50 -97 42 -205 140 -164 101
42 101 170 0 212 -35 15 -40 15 -64 7z"/>
<path d="M8370 4264 c-185 -80 -145 -345 55 -362 166 -14 270 182 162 305 -58
66 -144 89 -217 57z"/>
<path d="M5873 4244 c-86 -42 -54 -174 42 -174 100 0 128 146 34 179 -40 14
-37 14 -76 -5z"/>
<path d="M8880 4253 c-54 -21 -69 -92 -27 -131 49 -46 127 -12 127 55 0 52
-54 94 -100 76z"/>
<path d="M5626 4219 c-30 -23 -33 -45 -10 -77 21 -31 69 -30 90 3 21 32 12 68
-21 83 -32 15 -28 16 -59 -9z"/>
<path d="M7934 4161 c-77 -47 -100 -122 -62 -198 33 -66 66 -88 136 -88 93 0
155 61 155 151 0 116 -132 194 -229 135z"/>
<path d="M9291 4124 c-43 -36 -58 -89 -38 -137 18 -43 68 -77 113 -77 75 0
137 85 114 156 -27 81 -126 111 -189 58z"/>
<path d="M6157 4079 c-9 -5 -24 -24 -33 -40 -40 -77 43 -161 122 -123 59 28
71 98 25 145 -31 31 -79 38 -114 18z"/>
<path d="M10356 4069 c-68 -53 -1 -164 77 -128 56 26 57 112 1 138 -35 16 -48
14 -78 -10z"/>
<path d="M8813 4004 c-23 -9 -65 -36 -93 -61 -168 -151 -138 -408 61 -518 49
-27 63 -30 144 -30 75 0 98 4 139 24 233 115 241 442 14 566 -45 25 -66 29
-138 32 -58 2 -98 -2 -127 -13z"/>
<path d="M10582 3983 c-39 -19 -62 -59 -62 -109 0 -28 8 -44 34 -70 29 -29 41
-34 81 -34 40 0 52 5 81 34 26 26 34 42 34 71 0 48 -26 91 -66 110 -40 19 -61
19 -102 -2z"/>
<path d="M5920 3960 c-11 -11 -20 -29 -20 -40 0 -26 34 -60 60 -60 26 0 60 34
60 60 0 26 -34 60 -60 60 -11 0 -29 -9 -40 -20z"/>
<path d="M10087 3920 c-254 -64 -366 -352 -221 -567 106 -155 311 -204 477
-115 67 36 141 120 168 190 88 226 -74 480 -316 496 -38 3 -87 1 -108 -4z"/>
<path d="M9456 3845 c-107 -38 -164 -168 -121 -273 34 -79 101 -122 192 -122
187 1 273 228 133 354 -59 53 -129 68 -204 41z"/>
<path d="M6300 3830 c-11 -11 -20 -29 -20 -40 0 -26 34 -60 60 -60 26 0 60 34
60 60 0 26 -34 60 -60 60 -11 0 -29 -9 -40 -20z"/>
<path d="M8035 3763 c-122 -44 -215 -127 -268 -241 -42 -91 -49 -208 -18 -310
78 -257 381 -384 623 -261 54 28 143 112 175 167 133 227 44 512 -197 626 -57
27 -78 31 -165 33 -77 3 -112 -1 -150 -14z"/>
<path d="M5172 3690 c-43 -26 -76 -98 -67 -143 11 -50 35 -83 75 -106 64 -36
133 -21 183 38 34 41 38 117 7 166 -39 63 -134 84 -198 45z"/>
<path d="M2905 3649 c-116 -35 -130 -191 -22 -242 44 -21 70 -21 113 -1 140
66 57 287 -91 243z"/>
<path d="M3945 3596 c-111 -50 -105 -201 9 -240 109 -37 209 70 160 170 -34
68 -107 99 -169 70z"/>
<path d="M6229 3555 c-60 -19 -141 -92 -170 -153 -17 -34 -23 -64 -23 -112 2
-263 314 -383 489 -188 157 175 43 448 -194 464 -33 2 -75 -2 -102 -11z"/>
<path d="M9614 3380 c-11 -4 -34 -24 -52 -44 -26 -30 -32 -45 -32 -84 0 -186
268 -204 287 -19 11 106 -102 188 -203 147z"/>
<path d="M7005 3248 c-51 -27 -60 -84 -20 -123 28 -28 70 -32 102 -10 44 31
37 111 -13 134 -31 14 -43 14 -69 -1z"/>
<path d="M7379 3236 c-159 -56 -211 -258 -101 -386 112 -131 311 -112 399 38
37 62 39 165 6 228 -58 109 -190 161 -304 120z"/>
<path d="M8985 3244 c-230 -36 -434 -205 -513 -426 -20 -57 -27 -97 -30 -183
-5 -136 12 -217 68 -324 78 -150 209 -261 370 -315 74 -25 100 -29 200 -29
100 0 126 4 200 29 161 54 292 165 370 315 56 108 73 189 68 324 -4 85 -11
127 -31 183 -67 190 -217 335 -416 402 -63 21 -220 34 -286 24z"/>
<path d="M5795 3210 c-44 -18 -70 -59 -70 -110 0 -106 120 -154 196 -78 24 24
29 38 29 77 0 55 -20 88 -66 107 -37 16 -59 17 -89 4z"/>
<path d="M9992 3110 c-157 -96 -27 -336 137 -252 47 23 72 61 78 113 11 117
-116 199 -215 139z"/>
<path d="M6678 3029 c-124 -29 -237 -124 -296 -247 -35 -74 -37 -82 -37 -182
0 -101 2 -108 37 -183 164 -344 638 -342 802 3 29 61 31 72 31 180 -1 107 -3
119 -31 180 -91 192 -304 297 -506 249z"/>
<path d="M5395 2979 c-90 -45 -135 -118 -135 -219 0 -77 25 -134 80 -184 35
-32 118 -66 160 -66 77 0 183 68 220 139 60 121 9 271 -114 330 -57 28 -156
28 -211 0z"/>
<path d="M5986 2925 c-76 -27 -136 -110 -136 -190 0 -78 56 -158 132 -189 56
-24 108 -20 169 12 43 22 59 38 81 81 47 90 30 182 -45 248 -58 51 -128 64
-201 38z"/>
<path d="M7913 2780 c-71 -28 -146 -98 -180 -168 -24 -49 -28 -69 -28 -142 0
-66 5 -96 22 -132 30 -66 96 -133 162 -165 49 -24 68 -28 146 -28 95 0 135 14
212 72 37 29 86 102 103 157 47 148 -32 327 -175 396 -70 34 -190 38 -262 10z"/>
<path d="M9878 2745 c-51 -28 -50 -103 2 -130 36 -19 75 -11 95 18 47 68 -26
151 -97 112z"/>
<path d="M4444 2696 c-91 -40 -140 -123 -132 -226 6 -80 43 -135 117 -172 89
-45 174 -34 247 34 113 104 88 284 -48 352 -59 29 -133 34 -184 12z"/>
<path d="M7406 2690 c-41 -13 -85 -58 -98 -101 -43 -146 138 -252 246 -144 58
58 60 137 5 200 -17 19 -47 39 -67 45 -42 11 -47 11 -86 0z"/>
<path d="M4862 2627 c-57 -61 0 -153 78 -126 56 20 70 92 24 128 -35 28 -75
27 -102 -2z"/>
<path d="M5095 2458 c-76 -27 -145 -119 -145 -193 0 -120 95 -215 215 -215
221 0 292 295 94 394 -56 28 -111 32 -164 14z"/>
<path d="M5684 2446 c-17 -8 -44 -31 -60 -52 -25 -32 -29 -46 -29 -100 0 -70
17 -102 75 -141 40 -28 116 -31 167 -6 80 38 114 156 66 234 -43 69 -142 98
-219 65z"/>
<path d="M2152 2429 c-49 -15 -107 -77 -121 -132 -55 -219 257 -327 350 -122
35 75 14 164 -50 218 -51 42 -113 55 -179 36z"/>
<path d="M3291 2413 c-56 -47 -24 -133 49 -133 71 0 104 76 55 125 -29 30 -74
33 -104 8z"/>
<path d="M2780 2394 c-134 -49 -214 -160 -213 -300 0 -125 67 -229 182 -283
73 -34 182 -36 252 -4 113 51 179 148 187 274 4 67 1 83 -23 136 -32 73 -92
134 -160 164 -65 29 -165 35 -225 13z"/>
<path d="M6122 2383 c-98 -48 -118 -175 -41 -252 65 -65 162 -63 226 5 117
125 -31 323 -185 247z"/>
<path d="M371 2352 c-103 -55 -85 -211 27 -241 33 -10 41 -9 94 11 92 34 87
194 -7 234 -46 19 -73 18 -114 -4z"/>
<path d="M3594 2351 c-137 -62 -130 -253 11 -307 148 -56 281 104 200 242 -27
46 -90 84 -141 84 -16 0 -47 -9 -70 -19z"/>
<path d="M4059 2321 c-21 -22 -29 -39 -29 -66 0 -51 44 -95 95 -95 51 0 95 44
95 95 0 51 -44 95 -95 95 -27 0 -44 -8 -66 -29z"/>
<path d="M4760 2305 c-58 -61 0 -151 80 -124 55 20 68 82 25 124 -32 33 -74
33 -105 0z"/>
<path d="M7452 2304 c-72 -37 -102 -134 -64 -204 73 -133 277 -81 277 70 0
107 -119 182 -213 134z"/>
<path d="M1343 2272 c-83 -65 -16 -194 83 -162 69 23 86 99 35 151 -34 34 -83
39 -118 11z"/>
<path d="M4343 2220 c-47 -19 -58 -92 -20 -128 48 -45 127 -11 127 54 0 32
-28 74 -49 74 -5 0 -15 2 -23 4 -7 3 -23 1 -35 -4z"/>
<path d="M1776 2129 c-30 -23 -33 -45 -10 -77 30 -44 104 -16 104 39 0 16 -44
59 -60 59 -4 0 -19 -9 -34 -21z"/>
<path d="M3286 2119 c-37 -29 -37 -89 0 -118 15 -12 38 -21 51 -21 34 0 73 42
73 80 0 38 -39 80 -73 80 -13 0 -36 -9 -51 -21z"/>
<path d="M4589 2131 c-77 -25 -119 -82 -119 -163 0 -41 6 -64 23 -88 39 -58
71 -75 141 -75 54 0 68 4 100 29 119 90 68 281 -79 300 -22 3 -52 1 -66 -3z"/>
<path d="M7031 2116 c-47 -17 -108 -71 -131 -116 -46 -91 -34 -190 33 -266 52
-59 105 -83 180 -84 97 0 173 47 220 135 30 56 29 155 -1 211 -56 108 -189
161 -301 120z"/>
<path d="M8320 2111 c-50 -16 -87 -41 -124 -81 -52 -58 -69 -103 -69 -180 1
-203 209 -328 391 -236 91 46 141 130 142 236 0 107 -55 196 -153 246 -36 19
-148 28 -187 15z"/>
<path d="M6491 2095 c-80 -25 -140 -107 -141 -191 0 -58 42 -136 92 -170 36
-25 50 -29 113 -29 63 0 77 4 113 29 46 32 92 112 92 160 0 94 -66 183 -153
204 -55 14 -60 14 -116 -3z"/>
<path d="M3975 2071 c-178 -46 -251 -249 -142 -393 108 -144 337 -124 419 36
43 83 32 193 -26 269 -51 66 -172 109 -251 88z"/>
<path d="M5913 2061 c-96 -44 -110 -155 -28 -231 22 -21 37 -25 85 -25 51 0
63 4 89 29 78 75 58 191 -39 230 -50 20 -56 20 -107 -3z"/>
<path d="M5451 2036 c-56 -31 -67 -102 -22 -147 39 -38 87 -39 130 -3 85 71
-11 204 -108 150z"/>
<path d="M7725 2017 c-87 -34 -130 -102 -123 -192 6 -70 39 -118 102 -150 63
-32 99 -31 164 1 150 75 133 288 -27 342 -42 15 -77 14 -116 -1z"/>
<path d="M2430 1960 c-24 -24 -25 -48 -4 -78 32 -46 114 -17 114 40 0 26 -36
58 -65 58 -14 0 -34 -9 -45 -20z"/>
<path d="M1290 1950 c-11 -11 -20 -29 -20 -40 0 -11 9 -29 20 -40 11 -11 29
-20 40 -20 11 0 29 9 40 20 11 11 20 29 20 40 0 11 -9 29 -20 40 -11 11 -29
20 -40 20 -11 0 -29 -9 -40 -20z"/>
<path d="M1562 1944 c-42 -29 -18 -104 35 -104 49 0 72 76 31 104 -12 9 -27
16 -33 16 -6 0 -21 -7 -33 -16z"/>
<path d="M3504 1931 c-65 -40 -61 -131 6 -166 63 -33 135 12 135 86 0 74 -79
119 -141 80z"/>
<path d="M1864 1870 c-59 -24 -72 -104 -25 -151 39 -38 80 -39 122 -1 58 52
32 144 -46 157 -16 2 -40 0 -51 -5z"/>
<path d="M8800 1855 c-33 -35 -31 -81 4 -112 34 -28 65 -29 100 -2 20 16 26
29 26 59 0 71 -82 106 -130 55z"/>
<path d="M2396 1768 c-51 -14 -112 -76 -126 -129 -50 -184 176 -315 311 -180
136 135 1 360 -185 309z"/>
<path d="M3209 1757 c-119 -63 -117 -237 4 -296 53 -26 90 -26 143 -2 111 50
133 187 44 272 -57 54 -120 63 -191 26z"/>
<path d="M1279 1721 c-37 -37 -38 -79 -3 -120 21 -26 33 -31 68 -31 57 0 91
34 91 92 0 82 -96 118 -156 59z"/>
<path d="M2855 1675 c-33 -33 -32 -70 4 -106 37 -37 65 -37 102 0 31 32 35 50
17 84 -27 52 -83 62 -123 22z"/>
<path d="M2009 1651 c-32 -33 -36 -58 -14 -100 42 -82 165 -44 165 50 0 32
-53 79 -90 79 -22 0 -41 -9 -61 -29z"/>
<path d="M1689 1616 c-30 -14 -38 -66 -14 -90 36 -36 95 -9 95 43 0 44 -41 67
-81 47z"/>
<path d="M416 1550 c-90 -28 -121 -136 -59 -210 95 -113 282 5 217 136 -32 63
-95 93 -158 74z"/>
<path d="M2712 1484 c-35 -24 -28 -84 12 -103 25 -12 31 -11 55 6 33 26 39 65
12 92 -25 25 -49 27 -79 5z"/>
<path d="M1805 1466 c-56 -24 -115 -112 -115 -171 0 -60 60 -148 117 -171 139
-59 293 70 255 212 -7 25 -22 58 -34 75 -45 60 -151 86 -223 55z"/>
<path d="M2250 1352 c-14 -11 -22 -29 -22 -47 0 -29 31 -65 57 -65 24 0 65 41
65 66 0 29 -32 64 -59 64 -10 0 -29 -8 -41 -18z"/>
<path d="M1054 1100 c-86 -35 -60 -170 33 -170 76 0 114 93 60 147 -26 26 -64
35 -93 23z"/>
<path d="M63 730 c-45 -27 -66 -73 -60 -128 13 -120 174 -153 237 -49 70 114
-63 247 -177 177z"/>
<path d="M1415 495 c-114 -41 -147 -185 -61 -271 89 -89 243 -48 275 74 35
127 -90 242 -214 197z"/>
<path d="M430 308 c-52 -36 -73 -71 -77 -130 -3 -42 1 -62 19 -93 26 -45 93
-85 143 -85 46 1 109 34 136 71 33 46 34 144 3 186 -37 49 -82 73 -139 73 -38
0 -61 -6 -85 -22z"/>
</g>
</svg>
